<?xml version="1.0" encoding="utf-8"?>
<!-- Generator: Adobe Illustrator 16.0.3, SVG Export Plug-In . SVG Version: 6.00 Build 0)  -->
<!DOCTYPE svg PUBLIC "-//W3C//DTD SVG 1.1//EN" "http://www.w3.org/Graphics/SVG/1.1/DTD/svg11.dtd">
<svg version="1.1" id="Layer_1" xmlns="http://www.w3.org/2000/svg" xmlns:xlink="http://www.w3.org/1999/xlink" x="0px" y="0px"
	 width="206.5px" height="37.667px" viewBox="0 0 206.5 37.667" enable-background="new 0 0 206.5 37.667" xml:space="preserve">
<g>
	<g>
		<g>
			<g>
				<g>
					<defs>
						<rect id="SVGID_1_" x="0.413" y="-1.135" width="205.706" height="41.535"/>
					</defs>
					<clipPath id="SVGID_2_">
						<use xlink:href="#SVGID_1_"  overflow="visible"/>
					</clipPath>
					<path clip-path="url(#SVGID_2_)" fill="#FFF100" d="M191.021,0.318c6.174,0.879,12.172,6.112,14.063,12.045
						c2.349,6.463,0.685,14.029-3.965,18.974c-3.271,3.439-7.281,5.439-11.864,5.971l-173.38,0.02
						c-6.202-0.852-12.211-5.639-14.162-11.66c-1.519-4.068-1.028-8.433-0.282-12.619C2.851,7.334,8.404,1.902,14.174,0.717
						l2.207-0.35L191.021,0.318L191.021,0.318z"/>
				</g>
			</g>
			<g>
				<g>
					<defs>
						<rect id="SVGID_3_" x="0.413" y="-1.135" width="205.706" height="41.535"/>
					</defs>
					<clipPath id="SVGID_4_">
						<use xlink:href="#SVGID_3_"  overflow="visible"/>
					</clipPath>
					<path clip-path="url(#SVGID_4_)" fill="#0066B2" d="M140.473,2.91c1.188-0.146,2.547-0.154,3.428,0.635
						c0.97,0.932,0.379,2.406,0.668,3.652c-0.332,1.756,0.214,3.166,0.078,4.947c0.006,1.215-0.16,2.346,0.156,3.391
						c0.143,0.226,0.396,0.338,0.596,0.166c0.988-0.512,1.152-1.615,1.574-2.465c0.248-1.301,0.271-2.77,1.512-3.566
						c1.981-0.235,4.076-0.301,6.145-0.225c1.02-0.006,2.52-0.209,3.034,1.061c0.457,0.902-0.104,1.781-0.302,2.603
						c-0.811,2.604-1.618,5.233-3.448,7.426c-0.478,1.389,0.774,2.486,1.517,3.559c1.108,1.385,1.399,3.107,2.34,4.549
						c0.686,0.959,1.682,2.172,0.864,3.395c-0.337,0.51-0.901,0.77-1.495,0.855c-2.293,0.064-4.787-0.291-7.021,0.088
						c-2.037,0.121-2.584-2.17-3.723-3.297c-0.258-0.68-0.656-1.414-1.311-1.809c-0.283-0.055-0.509,0.146-0.593,0.371
						c-0.446,1.588,0.752,3.734-1.142,4.592c-1.244,0.373-2.492-0.074-3.822,0.018c-1.612,0.063-3.959,0.838-4.957-0.885
						c-0.459-1.301,0.043-2.832-0.217-4.188c-0.041-2.746-0.138-5.578,0.021-8.408c0.104-2.208-0.329-4.298-0.197-6.559
						c0.33-2.149,0.291-4.553-0.114-6.647c0.225-1.021-0.436-2.604,0.895-3.063l1.131-0.26L140.473,2.91L140.473,2.91z"/>
				</g>
			</g>
			<g>
				<g>
					<defs>
						<rect id="SVGID_5_" x="0.413" y="-1.135" width="205.706" height="41.535"/>
					</defs>
					<clipPath id="SVGID_6_">
						<use xlink:href="#SVGID_5_"  overflow="visible"/>
					</clipPath>
					<path clip-path="url(#SVGID_6_)" fill="#0066B2" d="M131.074,3.177c1.533,0.729,1.088,2.628,1.095,4.104
						c-0.112,0.369-0.364,0.767-0.731,0.853c-2.66,0.266-5.151,0.164-7.896,0.147c-0.481-0.055-1.021-0.223-1.222-0.729
						c-0.23-1.107-0.18-2.211-0.102-3.372c0.42-1.445,2.262-0.774,3.479-1.007C127.537,3.08,129.234,3.015,131.074,3.177
						L131.074,3.177z"/>
				</g>
			</g>
			<g>
				<g>
					<defs>
						<rect id="SVGID_7_" x="0.413" y="-1.135" width="205.706" height="41.535"/>
					</defs>
					<clipPath id="SVGID_8_">
						<use xlink:href="#SVGID_7_"  overflow="visible"/>
					</clipPath>
					<path clip-path="url(#SVGID_8_)" fill="#0066B2" d="M116.697,4.061c1.225,1.382-0.014,3.513,0.814,5.038l0.256,0.168
						c0.766,0.194,1.727-0.205,2.379,0.356c0.455,0.535,0.375,1.355,0.35,2.063c0,0,0.059,0.056,0.029,0.056
						c-0.106,1.497,0.297,3.418-0.18,4.831c-0.562,0.824-1.639,0.658-2.517,0.578c-0.706,0.313-0.872,1.219-0.897,1.845
						c0.092,1.415,0.1,3.028,0.135,4.585c0.26,1.5,2.01,0.162,2.723,1.121c0.682,0.449,0.713,1.186,0.632,1.979
						c0.005,1.33,0.011,2.406,0.157,3.795c-0.11,0.648-0.25,1.271-0.756,1.758c-1.299,0.91-2.941,0.775-4.584,0.926
						c-2.035,0.291-3.821-0.268-5.664-0.656c-1.021-0.361-2.155-1.123-2.559-2.225c-0.545-1.922,0.012-4.076-0.225-6.143
						c-0.436-2.291,0.376-4.561-0.199-6.792c-0.313-0.678-1.22-0.42-1.449-1.182l-0.117-1.072l0.033-4.834
						c0.42-1.387,1.948-1.535,2.938-2.275c1.24-1.109,2.822-2.053,3.521-3.585c0.254-0.454,0.563-0.964,1.102-1.108
						c1.158-0.175,2.349,0.019,3.453,0.24L116.697,4.061L116.697,4.061z"/>
				</g>
			</g>
			<g>
				<g>
					<defs>
						<rect id="SVGID_9_" x="0.413" y="-1.135" width="205.706" height="41.535"/>
					</defs>
					<clipPath id="SVGID_10_">
						<use xlink:href="#SVGID_9_"  overflow="visible"/>
					</clipPath>
					<path clip-path="url(#SVGID_10_)" fill="#0066B2" d="M31.664,6.129c1.901,1.014,3.861,2.531,5.228,4.336
						c1.084,1.83,1.603,4.117,1.16,6.438c-0.045,2.547-0.828,4.928-2.971,6.637c-1.439,1.279-2.876,2.646-4.686,3.105
						c-2.09,1-4.81,0.729-7.129,0.967c-0.396,0.115-0.791,0.512-0.987,0.854c-0.587,1.645,1.064,3.787-0.857,4.816
						c-1.867,0.205-3.849,0.186-5.774,0.137c-1.586-0.219-3.706,0.668-4.647-0.998c-0.429-1.102,0.046-2.35-0.071-3.426
						c0.293-4.189,0.359-8.494,0.397-12.794c-0.211-3.136,0.086-6.33-0.38-9.414c0.138-0.795,0.247-1.703,1.123-2.103
						c1.3-0.458,2.802,0.017,4.161-0.188c4.302-0.104,9.254-0.55,13.28,0.904L31.664,6.129L31.664,6.129z"/>
				</g>
			</g>
			<g>
				<g>
					<defs>
						<rect id="SVGID_11_" x="0.413" y="-1.135" width="205.706" height="41.535"/>
					</defs>
					<clipPath id="SVGID_12_">
						<use xlink:href="#SVGID_11_"  overflow="visible"/>
					</clipPath>
					<path clip-path="url(#SVGID_12_)" fill="#0066B2" d="M90.285,4.571c0.652,0.421,0.6,1.214,0.715,1.865
						c0.38,2.718-0.115,5.998,0.35,8.821c0.029,0.199,0.115,0.396,0.313,0.451c0.425,0.027,0.621-0.455,0.818-0.709
						c1.323-1.617,0.231-5.285,3.403-5.102c2.064-0.377,4.388,0.15,6.453-0.227c0.624,0.024,1.22,0.475,1.506,1.039
						c0.548,1.778-0.78,3.197-1.084,4.838c-0.473,1.951-1.569,3.626-2.694,5.33c-0.36,1.785,1.569,2.795,2.198,4.266
						c0.716,1.922,1.744,3.699,2.773,5.479c0.288,0.65,0.032,1.332-0.39,1.842c-1.33,0.971-3.313,0.439-4.897,0.531
						c-1.955-0.389-4.58,1.293-5.808-1.104c-0.77-1.074-1.623-2.146-2.194-3.307c-0.2-0.311-0.54-0.449-0.85-0.275l-0.253,0.451
						c-0.333,1.445,0.695,3.535-1,4.334c-1.838,0.549-3.767-0.266-5.577,0.195c-1.386,0.203-2.858,0.154-3.599-1.088
						c-0.43-1.018-0.095-2.266-0.185-3.369c-0.122-2.008-0.13-3.99-0.167-5.971c0.27-3.145,0.001-6.144,0.016-9.337
						c0.246-2.092,0.236-4.297,0.113-6.475c0.053-0.909,0.162-1.872,1.037-2.356c1.498-0.573,3.17-0.099,4.754-0.36
						C87.425,4.471,88.98,4.152,90.285,4.571L90.285,4.571z"/>
				</g>
			</g>
			<g>
				<g>
					<defs>
						<rect id="SVGID_13_" x="0.413" y="-1.135" width="205.706" height="41.535"/>
					</defs>
					<clipPath id="SVGID_14_">
						<use xlink:href="#SVGID_13_"  overflow="visible"/>
					</clipPath>
					<path clip-path="url(#SVGID_14_)" fill="#0066B2" d="M174.982,9.724c3.205,1.313,6.021,4.608,6.434,8.026
						c0.009,1.869,0.951,4.074-0.77,5.412c-0.791,0.541-2.01,0.293-2.888,0.354c-3.227,0.408-6.481-0.172-9.766,0.186
						c-0.198,0.029-0.366,0.256-0.425,0.398c-0.109,0.51,0.345,0.762,0.687,0.984c1.502,0.588,3.454,0.24,5.125,0.518l3.99-0.104
						c0.765-0.287,1.812-0.604,2.491,0.045c1.164,0.986,0.209,2.404,0.471,3.707c0.032,0.961,0.404,2.148-0.3,2.916
						c-0.959,0.826-2.263,0.832-3.479,1.035c-2.773,0.039-5.631,0.506-8.266-0.162c-3.713-0.664-7.568-2.203-9.537-5.791
						c-1.909-2.85-2.354-7.063-1.234-10.353c0.558-2.518,2.414-4.928,4.672-6.266c1.526-0.459,2.77-1.623,4.467-1.658
						C169.457,8.502,172.404,8.974,174.982,9.724L174.982,9.724z"/>
				</g>
			</g>
			<g>
				<g>
					<defs>
						<rect id="SVGID_15_" x="0.413" y="-1.135" width="205.706" height="41.535"/>
					</defs>
					<clipPath id="SVGID_16_">
						<use xlink:href="#SVGID_15_"  overflow="visible"/>
					</clipPath>
					<path clip-path="url(#SVGID_16_)" fill="#0066B2" d="M200.291,9.982c0.46,1.664-0.014,3.588,0.137,5.256
						c0.146,1.412,0.127,3.078-1.201,3.878c-1.92,1.141-5.3-1.618-5.853,1.612c0.008,1.896,0.243,3.85,0.081,5.803
						c-0.076,1.955,1.125,4.695-0.85,6.09c-1.84,0.49-3.824-0.238-5.748,0.166c-1.244,0.232-2.742,0.27-3.683-0.662
						c-0.541-0.479-0.375-1.301-0.403-1.979c0.408-3.201,0.055-6.514-0.016-9.738c0.021-1.049,0.271-2.24,0.016-3.339
						c0.076-1.471-0.299-3.023-0.221-4.494c-0.063-1.156-0.039-2.541,1.006-3.225c1.61-0.518,3.566-0.043,5.293-0.307
						c0.819-0.115,1.924-0.291,2.604,0.271c0.452,0.365,0.428,0.959,0.799,1.381c0.649-0.114,1.015-0.881,1.606-1.137
						c1.104-0.74,2.631-0.492,3.934-0.752C198.842,8.688,199.75,9.138,200.291,9.982L200.291,9.982z"/>
				</g>
			</g>
			<g>
				<g>
					<defs>
						<rect id="SVGID_17_" x="0.413" y="-1.135" width="205.706" height="41.535"/>
					</defs>
					<clipPath id="SVGID_18_">
						<use xlink:href="#SVGID_17_"  overflow="visible"/>
					</clipPath>
					<path clip-path="url(#SVGID_18_)" fill="#0066B2" d="M72.645,10.14c2.381,0.866,5.107,2.832,5.628,5.516
						c0.321,2.091,0.16,4.129,0.169,6.284c0.296,3.168-0.369,6.285-0.016,9.51c0.002,0.479-0.223,0.879-0.561,1.193l-0.791,0.426
						c-2.208,0.039-4.643-0.064-6.737,0.115c-0.396-0.059-0.851-0.311-0.966-0.732c-0.057-0.225-0.002-0.566-0.257-0.678
						c-1.778,1.225-3.813,1.854-6.079,1.754c-1.783,0.092-3.229-0.693-4.789-1.143c-2.271-1.35-3.923-3.689-3.962-6.322
						c0.017-2.521,1.14-4.619,2.859-6.41c1.156-1.026,2.77-1.032,4.126-1.633c2.093-0.49,4.443-0.188,6.512,0.112
						c0.198-0.059,0.452-0.145,0.479-0.397c0.026-0.508-0.514-0.901-0.91-1.125c-1.134-0.334-2.408-0.356-3.682-0.379
						c-1.499,0.263-3.055,0.438-4.554,0.812c-0.594-0.023-1.246-0.107-1.56-0.699c-0.6-1.297-0.269-3.164-0.417-4.605
						c0.027-0.424,0.195-0.791,0.533-1.02c0.904-0.541,1.979-0.687,3.054-0.805c2.292-0.291,4.669-0.33,7.02-0.257
						C69.443,9.646,71.03,9.978,72.645,10.14L72.645,10.14z"/>
				</g>
			</g>
			<g>
				<g>
					<defs>
						<rect id="SVGID_19_" x="0.413" y="-1.135" width="205.706" height="41.535"/>
					</defs>
					<clipPath id="SVGID_20_">
						<use xlink:href="#SVGID_19_"  overflow="visible"/>
					</clipPath>
					<path clip-path="url(#SVGID_20_)" fill="#0066B2" d="M131.869,10.166c0.717,1.892,0.328,3.785,0.365,5.818
						c-0.164,1.303,0.293,2.517,0.158,3.933c0.121,1.814-0.238,3.77,0.023,5.521c0.034,1.357-0.159,2.66-0.04,3.992
						c0.091,0.988,0.207,1.924-0.496,2.719c-1.155,1.449-3.141,0.494-4.782,0.729c-1.387,0.119-2.941,0.439-4.16-0.266
						c-1.508-1.465-0.584-3.818-0.849-5.799c-0.323-2.943,0.313-6.031-0.065-8.974c-0.183-2.543,0.207-4.438-0.031-6.98
						c0.027-0.453,0.395-0.822,0.761-1.078c1.3-0.514,2.688-0.209,4.104-0.215c1.559,0.219,3.084-0.523,4.529,0.064L131.869,10.166
						L131.869,10.166z"/>
				</g>
			</g>
			<g>
				<g>
					<defs>
						<rect id="SVGID_21_" x="0.413" y="-1.135" width="205.706" height="41.535"/>
					</defs>
					<clipPath id="SVGID_22_">
						<use xlink:href="#SVGID_21_"  overflow="visible"/>
					</clipPath>
					<path clip-path="url(#SVGID_22_)" fill="#0066B2" d="M56.03,10.976c0.573,1.383,0.097,2.739,0.189,4.267
						c-0.106,1.725,0.498,3.871-1.395,4.843c-1.751,0.689-4.96-1.65-5.287,1.467c-0.021,1.783,0.213,3.396-0.063,5.238
						c-0.047,2.039,0.84,4.412-0.426,6.061c-0.48,0.455-1.187,0.514-1.781,0.488c-2.381-0.613-4.839,0.502-7.05-0.139
						c-0.51-0.168-1.05-0.646-1.166-1.186c-0.149-1.613,0.098-3.623,0.147-5.184c-0.233-1.525-0.043-3.453-0.192-5.063
						c0.409-3.459-0.426-6.79-0.016-10.125c0.14-0.481,0.477-0.906,0.901-1.19c1.725-0.488,3.538-0.13,5.32-0.334
						c0.849-0.062,1.896-0.148,2.634,0.327c0.2,0.423,0.259,0.986,0.628,1.269c0.508-0.256,0.874-0.822,1.382-1.08
						c1.44-0.854,3.479-0.691,5.15-0.559C55.433,10.187,55.86,10.58,56.03,10.976L56.03,10.976z"/>
				</g>
			</g>
			<g>
				<g>
					<defs>
						<rect id="SVGID_23_" x="0.413" y="-1.135" width="205.706" height="41.535"/>
					</defs>
					<clipPath id="SVGID_24_">
						<use xlink:href="#SVGID_23_"  overflow="visible"/>
					</clipPath>
					<path clip-path="url(#SVGID_24_)" fill="#FFF100" d="M27.09,15.199c0.398,0.478,0.231,1.187,0.149,1.75
						c-0.644,1.587-2.457,1.255-3.814,1.601c-0.368,0.029-0.708-0.024-0.992-0.222l-0.257-0.451
						c0.109-1.104-0.293-2.401,0.183-3.506c1.071-0.938,2.8-0.408,3.906,0.066L27.09,15.199L27.09,15.199z"/>
				</g>
			</g>
			<g>
				<g>
					<defs>
						<rect id="SVGID_25_" x="0.413" y="-1.135" width="205.706" height="41.535"/>
					</defs>
					<clipPath id="SVGID_26_">
						<use xlink:href="#SVGID_25_"  overflow="visible"/>
					</clipPath>
					<path clip-path="url(#SVGID_26_)" fill="#FFF100" d="M172.039,16.773c0.061,0.367-0.223,0.594-0.506,0.68
						c-1.528-0.162-3.057,0.381-4.416-0.063c-0.198-0.17-0.199-0.425-0.146-0.65c1.129-1.021,3.026-0.803,4.387-0.584
						C171.643,16.238,171.982,16.463,172.039,16.773L172.039,16.773z"/>
				</g>
			</g>
			<g>
				<g>
					<defs>
						<rect id="SVGID_27_" x="0.413" y="-1.135" width="205.706" height="41.535"/>
					</defs>
					<clipPath id="SVGID_28_">
						<use xlink:href="#SVGID_27_"  overflow="visible"/>
					</clipPath>
					<path clip-path="url(#SVGID_28_)" fill="#FFF100" d="M67.896,24.839c0.058,0.396-0.053,0.793-0.307,1.105
						c-0.677,0.598-1.725,0.375-2.573,0.578c-0.34-0.084-0.765-0.195-0.852-0.619c-0.144-0.424-0.089-0.936,0.193-1.275
						c0.704-0.854,1.866-0.547,2.856-0.52C67.497,24.277,67.809,24.501,67.896,24.839L67.896,24.839z"/>
				</g>
			</g>
		</g>
	</g>
</g>
</svg>
