<?xml version="1.0" encoding="utf-8"?>
<!-- Generator: Adobe Illustrator 16.0.3, SVG Export Plug-In . SVG Version: 6.00 Build 0)  -->
<!DOCTYPE svg PUBLIC "-//W3C//DTD SVG 1.1//EN" "http://www.w3.org/Graphics/SVG/1.1/DTD/svg11.dtd">
<svg version="1.1" id="Layer_1" xmlns="http://www.w3.org/2000/svg" xmlns:xlink="http://www.w3.org/1999/xlink" x="0px" y="0px"
	 width="522.281px" height="334.8px" viewBox="0 0 522.281 334.8" enable-background="new 0 0 522.281 334.8" xml:space="preserve">
<path fill="#FFFFFF" d="M45,289.799c0,24.801,20,45,44.6,45c12,0,23.3-4.699,32-13.199c8.7-8.6,13.4-19.801,13.4-31.801
	S130.2,266.6,121.6,258c-8.6-8.5-20-13.201-32-13.201C65,244.799,45,265,45,289.799 M65,289.799c0-13.799,11-25,24.6-25
	c13.8,0,25.4,11.401,25.4,25c0,13.602-11.6,25-25.4,25C76,314.799,65,303.6,65,289.799 M47.9,122c-2.1,1.9-3.3,4.6-3.3,7.4v54.899
	c0,5.5,4.5,10,10,10H136c5.5,0,10-4.5,10-10V102.3c0-5.5-4.5-10-10-10H84.7c-2.5,0-4.9,0.9-6.7,2.6L47.9,122z M64.6,133.8l24-21.6
	H126v62.099H64.6V133.8z M289.2,289.799c0,24.801,20,45,44.6,45c12,0,23.3-4.699,32-13.199c8.7-8.6,13.4-19.801,13.4-31.801
	S374.4,266.6,365.8,258c-8.6-8.5-20-13.201-32-13.201C309.2,244.799,289.2,265,289.2,289.799 M309.2,289.799c0-13.799,11-25,24.6-25
	c13.8,0,25.4,11.401,25.4,25c0,13.602-11.601,25-25.4,25C320.2,314.799,309.2,303.6,309.2,289.799 M390.5,267.1c0,5.5,4.5,10,10,10
	h30.1c5.5,0,10-4.5,10-10v-36.6c0-5.5-4.5-10-10-10s-10,4.5-10,10v26.6h-20.1C395,257.1,390.5,261.6,390.5,267.1 M359.8,212.6
	h152.481c5.5,0,10-4.5,10-10s-4.5-10-10-10H359.8c-5.5,0-10,4.5-10,10C349.8,208.2,354.3,212.6,359.8,212.6 M501.881,156.4
	c0-5.5-4.5-9.9-10-9.9h-0.1L339.3,147.2c-5.5,0-10,4.5-9.899,10.1c0.1,5.5,4.6,9.9,10.1,9.9l152.481-0.7
	C497.481,166.5,501.981,162,501.881,156.4 M481.582,111.1c0-5.5-4.5-10-10-10H319.1c-5.5,0-10,4.5-10,10s4.5,10,10,10h152.482
	C477.082,121.1,481.582,116.6,481.582,111.1 M0,115.4L0.8,267c0,5.5,4.5,9.9,10,9.9h20.3c5.5,0,10-4.5,10-10s-4.5-10-10-10H20.7
	L20,120l65.2-54h80.6v191.1h-20.1c-5.5,0-10,4.5-10,10s4.5,10,10,10h122.1c5.5,0,10-4.5,10-10s-4.5-10-10-10h-82V20h234.8v63.2
	c0,5.5,4.5,10,10,10s10-4.5,10-10V10c0-5.5-4.5-10-10-10H175.9c-5.5,0-10,4.5-10,10v36H81.7c-2.4,0-4.6,0.8-6.4,2.3L3.7,107.6
	C1.4,109.5,0.1,112.4,0,115.4"/>
<rect fill="none" width="522.281" height="334.8"/>
</svg>
